<svg xmlns="http://www.w3.org/2000/svg" xmlns:lucid="lucid" width="175" height="75"><g lucid:page-tab-id="0_0"><path d="M136.3 17.07c8.73 0 15.8 7.08 15.8 15.8 0 8.74-7.06 15.82-15.8 15.82H19.27c-8.73 0-15.8-7.1-15.8-15.82 0-8.73 7.07-15.8 15.8-15.8z" stroke="#000"/><path d="M134.67 60.26a11.28 11.28 0 0 1-4.97-9.35V23.16a11.28 11.28 0 0 1 4.97-9.35l9.7-6.55a8.9 8.9 0 0 1 9.96 0l9.7 6.55a11.28 11.28 0 0 1 4.98 9.35V50.9a11.28 11.28 0 0 1-4.97 9.36l-9.7 6.54a8.9 8.9 0 0 1-9.95 0z" stroke="#000"/></g></svg>